<svg width="50" height="50" viewBox="0 0 50 50" fill="#fff" xmlns="http://www.w3.org/2000/svg">
<path d="M26.1991 48.4375C19.6001 48.4375 13.4083 45.8798 8.76416 41.2358C4.12002 36.5919 1.5625 30.3997 1.5625 23.8006C1.56152 19.2482 2.82201 14.7846 5.20408 10.9052C7.58615 7.02585 10.9966 3.88241 15.0569 1.82382C15.4747 1.61088 15.9459 1.52569 16.4117 1.57889C16.8776 1.6321 17.3174 1.82133 17.6764 2.12298C18.0353 2.42462 18.2975 2.82532 18.4301 3.27504C18.5628 3.72476 18.56 4.20359 18.4222 4.65175C17.2635 8.39414 17.1497 12.382 18.0929 16.1844C19.036 19.9868 21.0004 23.4592 23.7737 26.2263C25.7639 28.2313 28.1321 29.8216 30.7411 30.9052C33.3501 31.9888 36.1481 32.5441 38.9731 32.5391C41.1343 32.5407 43.2833 32.2165 45.3479 31.5775C45.796 31.4396 46.2749 31.4368 46.7247 31.5694C47.1745 31.702 47.5752 31.9642 47.8769 32.3232C48.1786 32.6822 48.3678 33.1221 48.421 33.588C48.4742 34.0539 48.3889 34.5251 48.1759 34.9429C46.1173 39.0032 42.9738 42.4137 39.0945 44.7958C35.2151 47.1779 30.7515 48.4384 26.1991 48.4375V48.4375ZM14.9717 5.44736C11.8231 7.36306 9.22223 10.0589 7.4206 13.2741C5.61898 16.4893 4.67759 20.115 4.6875 23.8006C4.6875 35.6622 14.3375 45.3125 26.1991 45.3125C29.8847 45.3224 33.5104 44.381 36.7257 42.5794C39.9409 40.7778 42.6367 38.1769 44.5524 35.0283C42.723 35.4517 40.8512 35.6651 38.9733 35.6643C35.7378 35.6705 32.5331 35.0348 29.5448 33.7941C26.5566 32.5534 23.8441 30.7323 21.5644 28.4362C18.6028 25.4803 16.4433 21.8184 15.2898 17.7962C14.1363 13.774 14.0268 9.5242 14.9717 5.44794V5.44736Z" fill="#000"/>
</svg>
