<svg width="81" height="65" viewBox="0 0 81 65" fill="none" xmlns="http://www.w3.org/2000/svg">
<path d="M9.38864 52.8189L14.58 56.936L21.2073 51.7094L15.9791 47.5631L9.38864 52.8189ZM36.8182 64.2357H44.1818V55.622H36.8182V64.2357ZM40.5 14.7435C34.6411 14.7435 29.0222 16.5893 24.8794 19.8748C20.7365 23.1603 18.4091 27.6165 18.4091 32.2629C18.4091 36.9093 20.7365 41.3654 24.8794 44.6509C29.0222 47.9365 34.6411 49.7822 40.5 49.7822C46.3589 49.7822 51.9778 47.9365 56.1206 44.6509C60.2635 41.3654 62.5909 36.9093 62.5909 32.2629C62.5909 22.5688 52.6868 14.7435 40.5 14.7435ZM69.9545 35.1828H81V29.343H69.9545V35.1828ZM59.7927 51.7094L66.42 56.936L71.6114 52.8189L65.0209 47.5631L59.7927 51.7094ZM71.6114 11.7068L66.42 7.58979L59.7927 12.8164L65.0209 16.9626L71.6114 11.7068ZM44.1818 0.290054H36.8182V8.90374H44.1818V0.290054ZM11.0455 29.343H0V35.1828H11.0455V29.343ZM21.2073 12.8164L14.58 7.58979L9.38864 11.7068L15.9791 16.9626L21.2073 12.8164Z" fill="white"/>
</svg>
