<svg width="1440" height="1038" viewBox="0 0 1440 1038" fill="none" xmlns="http://www.w3.org/2000/svg">
<rect width="1440" height="1038" fill="#D2D2D3"/>
<path opacity="0.1" d="M237 669C319.843 669 387 601.843 387 519C387 436.157 319.843 369 237 369C154.157 369 87 436.157 87 519C87 601.843 154.157 669 237 669Z" fill="#2F303A"/>
<path opacity="0.1" d="M1218 876C1300.84 876 1368 808.843 1368 726C1368 643.157 1300.84 576 1218 576C1135.16 576 1068 643.157 1068 726C1068 808.843 1135.16 876 1218 876Z" fill="#2F303A"/>
<path opacity="0.1" d="M368 519C450.843 519 518 451.843 518 369C518 286.157 450.843 219 368 219C285.157 219 218 286.157 218 369C218 451.843 285.157 519 368 519Z" fill="#FF1515"/>
<path opacity="0.1" d="M1057 772C1139.84 772 1207 704.843 1207 622C1207 539.157 1139.84 472 1057 472C974.157 472 907 539.157 907 622C907 704.843 974.157 772 1057 772Z" fill="#FF1515"/>
</svg>
